<?xml version="1.0" standalone="no"?>
<!DOCTYPE svg PUBLIC "-//W3C//DTD SVG 20010904//EN"
 "http://www.w3.org/TR/2001/REC-SVG-20010904/DTD/svg10.dtd">
<svg version="1.0" xmlns="http://www.w3.org/2000/svg"
 width="600.000000pt" height="600.000000pt" viewBox="0 0 600.000000 600.000000"
 preserveAspectRatio="xMidYMid meet">
<metadata>
Created by potrace 1.11, written by Peter Selinger 2001-2013
</metadata>
<g transform="translate(0.000000,600.000000) scale(0.100000,-0.100000)"
fill="#000000" stroke="none">
<path d="M4126 4764 c-27 -8 -90 -40 -140 -71 -323 -197 -593 -440 -682 -615
-40 -79 -86 -224 -99 -313 -1 -11 -6 -40 -10 -65 -4 -25 -8 -315 -9 -645 l-1
-600 -65 0 -65 0 -2 335 c-1 376 -5 451 -27 565 -41 207 -110 340 -253 483
-150 149 -367 310 -578 429 -137 78 -226 93 -330 58 -88 -30 -126 -71 -193
-207 -112 -226 -182 -414 -182 -484 0 -84 38 -140 120 -176 25 -11 65 -30 90
-41 128 -57 450 -160 570 -181 318 -57 376 -71 455 -116 59 -34 89 -64 104
-103 7 -18 11 -231 10 -630 0 -547 1 -602 16 -607 21 -7 184 -4 192 4 3 3 6
116 6 251 l0 245 26 1 c14 1 33 2 41 3 8 1 26 -1 40 -5 l25 -5 0 -250 0 -249
85 0 c131 0 119 -17 118 168 0 89 1 470 1 847 2 639 3 688 20 725 20 44 62 90
101 110 22 11 168 41 295 59 368 54 756 169 843 249 92 85 69 222 -94 552 -81
163 -130 228 -204 265 -58 30 -156 36 -224 14z m223 -84 c88 -25 143 -99 235
-315 86 -200 100 -275 68 -347 -21 -49 -51 -81 -96 -105 -24 -13 -333 -107
-391 -119 -32 -7 -177 -36 -205 -40 -14 -3 -70 -13 -125 -24 -55 -10 -116 -22
-135 -25 -19 -3 -47 -8 -62 -11 -151 -25 -178 -22 -202 25 -45 86 -11 238 86
379 39 56 254 271 349 348 103 84 226 169 304 209 69 37 113 43 174 25z
m-2259 -500 c136 -78 271 -178 403 -300 79 -72 211 -208 217 -223 3 -7 13 -23
22 -37 24 -37 57 -148 61 -205 3 -52 -13 -129 -34 -163 -27 -43 -51 -47 -167
-29 -318 49 -544 104 -772 187 -178 66 -221 92 -259 160 -50 89 -29 173 116
465 73 147 113 187 205 203 62 11 111 -2 208 -58z"/>
<path d="M4230 4619 c-38 -16 -183 -122 -315 -233 -104 -88 -169 -146 -286
-257 -29 -29 -79 -102 -79 -118 0 -5 25 15 55 44 85 84 579 490 638 525 47 28
109 19 161 -21 l41 -32 -35 38 c-55 59 -119 78 -180 54z"/>
<path d="M1864 4159 c-23 -11 -50 -30 -60 -41 -19 -22 -19 -22 17 0 43 26 101
33 144 19 68 -24 392 -273 569 -437 27 -25 54 -49 61 -55 6 -5 40 -37 75 -70
l63 -60 -29 52 c-16 28 -41 64 -55 80 -125 136 -553 476 -653 518 -48 20 -83
19 -132 -6z"/>
<path d="M164 2948 c-59 -22 -92 -50 -131 -109 l-28 -44 -3 -512 -3 -513 86 0
85 0 0 486 0 486 29 28 c28 29 41 31 92 15 42 -14 43 -28 44 -530 l1 -480 85
-3 85 -3 -1 468 c0 257 3 482 7 498 9 34 54 67 85 60 31 -5 63 -28 69 -49 3
-10 6 -234 7 -497 l0 -479 84 0 c59 0 83 4 84 13 0 6 1 221 2 477 2 479 -1
529 -39 588 -67 106 -208 146 -323 93 -28 -14 -51 -28 -51 -32 0 -4 -25 6 -55
23 -70 37 -141 43 -211 16z"/>
<path d="M1192 2955 c-82 -25 -138 -79 -168 -162 -10 -30 -13 -143 -14 -530
l0 -493 85 0 85 0 0 250 c0 231 1 250 18 251 57 4 129 4 139 1 8 -2 11 -67 11
-230 0 -125 1 -237 1 -250 1 -22 4 -23 84 -20 l82 3 1 486 c1 537 0 545 -61
616 -63 74 -171 106 -263 78z m104 -165 c8 0 23 -14 33 -30 15 -26 18 -53 19
-169 0 -99 -3 -141 -11 -143 -7 -3 -43 -4 -82 -4 l-70 1 -3 144 c-2 118 0 148
13 168 18 26 52 44 73 37 8 -2 20 -4 28 -4z"/>
<path d="M5035 2960 c-77 -17 -145 -74 -178 -149 -19 -44 -20 -66 -21 -544
l-1 -498 85 3 85 3 1 242 c0 134 3 246 7 249 4 4 40 7 81 8 59 1 76 -2 78 -14
2 -8 3 -122 3 -253 l-1 -238 85 3 85 3 0 495 c0 482 -1 496 -21 542 -50 110
-174 174 -288 148z m104 -182 c30 -18 35 -43 35 -198 l1 -135 -83 0 c-67 -1
-82 2 -83 15 -6 89 1 276 11 295 23 43 72 52 119 23z"/>
<path d="M1619 2949 c-1 -12 -1 -135 0 -151 1 -9 25 -13 83 -13 l83 0 0 -502
c0 -277 2 -503 5 -504 14 -3 146 -4 155 -2 7 2 10 174 9 496 0 270 2 498 4
505 3 8 29 12 82 12 53 0 79 4 82 13 3 10 2 123 -1 149 -1 10 -501 8 -502 -3z"/>
<path d="M2374 2934 c-60 -29 -99 -67 -126 -123 -22 -45 -22 -53 -22 -446 0
-371 1 -403 18 -435 35 -66 68 -99 122 -126 48 -23 66 -26 181 -28 70 -1 133
-1 138 1 6 2 10 38 10 86 l-1 82 -109 1 c-61 0 -122 4 -137 7 -53 14 -55 30
-54 424 l1 362 23 23 c21 21 33 23 150 26 l128 4 -2 71 c-1 40 -2 77 -3 84 -1
9 -36 12 -136 11 -117 -1 -141 -5 -181 -24z"/>
<path d="M3559 2957 c-1 -1 -2 -267 -3 -592 l-2 -590 85 0 86 1 0 253 0 253
75 2 c88 3 144 27 196 84 52 57 66 111 65 262 -1 143 -13 185 -70 247 -59 65
-99 77 -273 80 -87 1 -159 1 -159 0z m284 -178 c38 -17 47 -51 47 -167 -1
-138 -15 -158 -115 -161 l-50 -1 1 167 c1 93 2 169 3 171 3 7 94 0 114 -9z"/>
<path d="M4217 2952 c-4 -6 -2 -1160 1 -1172 1 -3 113 -5 249 -5 l248 1 3 85
3 86 -153 1 c-84 0 -160 1 -169 1 -14 1 -15 52 -14 494 0 270 -1 497 -3 503
-3 12 -159 18 -165 6z"/>
<path d="M5495 2716 c1 -204 4 -247 19 -281 20 -48 78 -109 117 -126 16 -6 29
-17 30 -23 0 -6 1 -122 1 -258 0 -137 3 -248 7 -249 34 -5 154 -2 158 4 3 5 5
120 4 257 l-1 248 33 21 c54 33 84 64 109 111 22 43 23 56 26 291 l3 247 -86
0 -85 0 0 -218 c0 -142 -4 -228 -11 -244 -23 -49 -97 -57 -136 -14 -16 18 -18
42 -18 248 l0 227 -86 1 -85 0 1 -242z"/>
<path d="M1793 1639 c-39 -14 -51 -113 -18 -149 10 -11 38 -20 72 -23 31 -3
60 -10 65 -15 5 -5 10 -26 12 -46 3 -47 -20 -65 -82 -62 -46 2 -64 17 -59 51
1 12 -5 21 -15 23 -21 4 -23 -19 -7 -66 11 -33 40 -46 101 -45 73 3 98 34 92
113 -5 57 -18 69 -85 77 -68 7 -79 16 -79 65 0 40 8 48 50 50 60 2 71 -2 81
-32 6 -16 15 -30 19 -30 30 0 8 78 -26 90 -28 11 -90 11 -121 -1z"/>
<path d="M2164 1632 c3 -9 15 -55 26 -102 43 -172 59 -217 80 -223 11 -3 18
-1 14 4 -3 5 -1 9 4 9 4 0 19 44 31 98 13 53 29 117 36 142 14 52 11 58 51
-110 15 -63 32 -121 37 -127 15 -21 44 -15 49 10 3 12 22 83 42 158 42 157 40
149 21 149 -8 0 -17 -12 -21 -27 -3 -16 -14 -57 -24 -93 -10 -36 -23 -87 -30
-113 -12 -46 -19 -53 -24 -25 -1 7 -15 66 -31 131 -28 116 -45 146 -73 128 -6
-4 -27 -70 -45 -146 -33 -137 -41 -150 -52 -85 -3 18 -10 40 -14 49 -5 9 -9
18 -9 21 1 3 -7 40 -17 82 -14 57 -23 78 -37 81 -14 4 -18 1 -14 -11z"/>
<path d="M2791 1640 c-3 -3 -6 -77 -6 -165 l0 -160 65 -1 c36 -1 70 -3 75 -4
23 -5 35 1 35 19 0 17 -8 19 -67 17 -63 -1 -67 1 -73 23 -3 13 -4 41 -2 63 4
35 7 39 31 38 71 -5 108 0 108 15 0 12 -15 15 -69 15 l-68 0 0 55 0 55 69 0
c52 0 70 4 75 15 3 8 0 15 -7 16 -49 4 -160 3 -166 -1z"/>
<path d="M3207 1638 c-10 -5 -13 -43 -11 -160 1 -84 2 -156 3 -160 0 -3 24 -6
51 -4 29 1 50 -2 50 -9 0 -7 3 -7 8 0 4 6 14 10 22 10 30 -2 68 25 79 56 13
39 15 188 1 223 -5 14 -19 30 -30 36 -24 13 -154 19 -173 8z m163 -48 c17 -17
19 -31 17 -114 -1 -70 -6 -99 -17 -111 -19 -18 -138 -27 -143 -11 -2 9 -1 184
2 239 2 26 113 25 141 -3z"/>
<path d="M3678 1642 l-28 -3 3 -162 2 -162 88 -1 c77 -2 87 0 87 16 0 15 -9
17 -62 18 -35 0 -68 0 -73 1 -6 1 -11 25 -10 59 l1 57 54 2 c30 1 63 2 72 2
11 1 15 6 12 16 -4 10 -25 15 -72 17 l-67 3 0 50 1 50 72 3 c61 2 73 6 70 19
-2 13 -16 16 -63 17 -33 1 -72 0 -87 -2z"/>
<path d="M4071 1641 c-8 -5 -11 -56 -9 -167 3 -131 6 -159 18 -159 12 0 14 24
13 143 -1 79 0 142 2 140 2 -2 36 -66 74 -143 61 -121 74 -140 96 -142 14 -1
25 4 25 10 5 115 -3 313 -13 319 -6 4 -13 5 -15 4 -2 -2 -3 -68 -3 -147 l0
-143 -22 40 c-12 22 -44 85 -72 141 -47 97 -68 120 -94 104z"/>
</g>
</svg>
