<?xml version="1.0" standalone="no"?>
<!DOCTYPE svg PUBLIC "-//W3C//DTD SVG 20010904//EN"
 "http://www.w3.org/TR/2001/REC-SVG-20010904/DTD/svg10.dtd">
<svg version="1.0" xmlns="http://www.w3.org/2000/svg"
 width="473.000000pt" height="473.000000pt" viewBox="0 0 473.000000 473.000000"
 preserveAspectRatio="xMidYMid meet">
<metadata>
Created by potrace 1.14, written by Peter Selinger 2001-2017
</metadata>
<g transform="translate(0.000000,473.000000) scale(0.100000,-0.100000)"
fill="#000000" stroke="none">
<path d="M2310 4603 c-51 -29 -317 -153 -334 -156 -6 -1 -13 -4 -16 -7 -9 -9
-254 -98 -385 -140 -140 -45 -375 -109 -455 -124 -14 -2 -46 -9 -73 -15 -26
-6 -64 -14 -85 -17 -20 -3 -44 -7 -52 -9 -8 -3 -33 -7 -55 -10 -66 -9 -119
-17 -140 -21 -11 -2 -49 -6 -85 -9 -36 -3 -75 -7 -88 -9 -13 -3 -45 -6 -72 -8
-28 -2 -51 -7 -53 -13 -2 -5 -2 -32 -1 -60 3 -45 4 -349 3 -1055 -1 -339 9
-465 50 -675 19 -93 35 -160 50 -205 5 -14 15 -45 22 -70 42 -146 152 -394
250 -562 200 -344 485 -656 829 -909 124 -92 273 -189 289 -189 5 0 11 -4 13
-8 7 -18 413 -222 442 -222 25 0 367 169 491 243 519 310 911 731 1172 1259
29 59 53 111 53 115 1 5 9 26 20 48 11 22 19 44 20 48 0 5 6 23 14 40 48 106
121 401 142 573 3 27 7 65 10 84 10 74 24 1550 16 1551 -15 3 -51 8 -107 14
-33 3 -76 8 -95 10 -74 8 -138 17 -215 31 -44 7 -93 16 -110 19 -16 3 -55 11
-85 17 -30 7 -59 13 -65 14 -5 1 -12 3 -15 4 -3 1 -16 3 -29 6 -13 2 -69 16
-125 30 -369 93 -653 196 -989 361 -59 29 -109 53 -110 52 -1 -1 -22 -12 -47
-26z"/>
</g>
</svg>
